<svg width="411" height="296" viewBox="0 0 411 296" fill="none" xmlns="http://www.w3.org/2000/svg">
<g clip-path="url(#clip0_11_331)">
<path opacity="0.1" d="M4.43927 160.921C10.9427 188.692 24.7102 212.697 46.4646 224.348C91.6855 248.529 193.662 236.054 269.767 221.728C308.224 214.512 343.132 194.577 368.87 165.132L4.43927 160.921Z" fill="#6C63FF"/>
<path opacity="0.1" d="M403.545 30.2066H361.786C360.829 30.2066 359.911 29.8269 359.235 29.151C358.558 28.4751 358.178 27.5584 358.178 26.6025C358.178 25.6466 358.558 24.7299 359.235 24.054C359.911 23.3781 360.829 22.9984 361.786 22.9984H369.005C368.067 22.9682 367.179 22.5751 366.527 21.9021C365.874 21.2291 365.51 20.3291 365.51 19.3924C365.51 18.4556 365.874 17.5556 366.527 16.8826C367.179 16.2096 368.067 15.8165 369.005 15.7863H363.85C362.913 15.7562 362.024 15.363 361.372 14.6901C360.719 14.0171 360.355 13.1171 360.355 12.1803C360.355 11.2436 360.719 10.3435 361.372 9.67058C362.024 8.99762 362.913 8.60448 363.85 8.57431H385.645C380.809 6.32874 375.156 4.73064 368.641 3.8923C309.211 -3.73142 287.992 1.31363 280.507 6.51213C271.273 12.912 260.971 17.6202 249.96 19.8882C213.292 27.4446 144.717 36.5392 82.5634 16.9765C51.6719 7.24568 28.7149 23.6833 14.9512 51.1391H410.794C410.277 43.1599 408.73 35.7944 405.89 29.3421C405.238 29.9023 404.405 30.2092 403.545 30.2066Z" fill="#6C63FF"/>
<path opacity="0.1" d="M0.895368 102.959C-0.708515 119.109 -0.164325 135.4 2.51374 151.408L369.151 164.806C379.358 153.077 387.927 140.02 394.625 125.992L0.895368 102.959ZM145.905 137.519H138.686C139.643 137.519 140.56 137.899 141.237 138.574C141.913 139.25 142.293 140.167 142.293 141.123C142.293 142.079 141.913 142.996 141.237 143.671C140.56 144.347 139.643 144.727 138.686 144.727H96.9265C95.9697 144.727 95.0521 144.347 94.3755 143.671C93.699 142.996 93.3189 142.079 93.3189 141.123C93.3189 140.167 93.699 139.25 94.3755 138.574C95.0521 137.899 95.9697 137.519 96.9265 137.519H104.145C103.208 137.489 102.32 137.096 101.667 136.423C101.015 135.75 100.65 134.85 100.65 133.913C100.65 132.976 101.015 132.076 101.667 131.403C102.32 130.73 103.208 130.337 104.145 130.307H98.9907C98.0535 130.277 97.1648 129.883 96.5125 129.211C95.8603 128.538 95.4956 127.638 95.4956 126.701C95.4956 125.764 95.8603 124.864 96.5125 124.191C97.1648 123.518 98.0535 123.125 98.9907 123.095H140.75C141.687 123.125 142.576 123.518 143.228 124.191C143.88 124.864 144.245 125.764 144.245 126.701C144.245 127.638 143.88 128.538 143.228 129.211C142.576 129.883 141.687 130.277 140.75 130.307H145.905C146.842 130.337 147.731 130.73 148.383 131.403C149.035 132.076 149.4 132.976 149.4 133.913C149.4 134.85 149.035 135.75 148.383 136.423C147.731 137.096 146.842 137.489 145.905 137.519Z" fill="#6C63FF"/>
<path opacity="0.1" d="M410.813 51.3787L10.5344 61.1095C5.66429 73.6136 2.45376 87.742 0.955261 102.402H403.8C406.429 93.7944 408.374 84.9931 409.618 76.0799C410.816 67.4682 411.296 59.1371 410.813 51.3787ZM82.2187 83.2508H74.9997C75.4735 83.2508 75.9426 83.344 76.3803 83.5252C76.818 83.7063 77.2157 83.9718 77.5507 84.3064C77.8857 84.6411 78.1514 85.0384 78.3327 85.4757C78.514 85.913 78.6073 86.3816 78.6073 86.855C78.6073 87.3283 78.514 87.7969 78.3327 88.2342C78.1514 88.6715 77.8857 89.0688 77.5507 89.4035C77.2157 89.7381 76.818 90.0036 76.3803 90.1847C75.9426 90.3659 75.4735 90.4591 74.9997 90.4591H33.2404C32.2836 90.4591 31.3659 90.0794 30.6894 89.4035C30.0128 88.7276 29.6327 87.8108 29.6327 86.855C29.6327 85.8991 30.0128 84.9823 30.6894 84.3064C31.3659 83.6305 32.2836 83.2508 33.2404 83.2508H40.4594C39.5222 83.2206 38.6335 82.8275 37.9812 82.1545C37.329 81.4816 36.9643 80.5815 36.9643 79.6448C36.9643 78.708 37.329 77.808 37.9812 77.135C38.6335 76.4621 39.5222 76.069 40.4594 76.0388H35.3045C34.3674 76.0086 33.4787 75.6155 32.8264 74.9425C32.1742 74.2696 31.8095 73.3695 31.8095 72.4328C31.8095 71.496 32.1742 70.596 32.8264 69.923C33.4787 69.2501 34.3674 68.8569 35.3045 68.8268H77.0639C78.0011 68.8569 78.8897 69.2501 79.542 69.923C80.1943 70.596 80.559 71.496 80.559 72.4328C80.559 73.3695 80.1943 74.2696 79.542 74.9425C78.8897 75.6155 78.0011 76.0086 77.0639 76.0388H82.2187C83.1559 76.069 84.0446 76.4621 84.6968 77.135C85.3491 77.808 85.7138 78.708 85.7138 79.6448C85.7138 80.5815 85.3491 81.4816 84.6968 82.1545C84.0446 82.8275 83.1559 83.2206 82.2187 83.2508Z" fill="#6C63FF"/>
<path opacity="0.1" d="M211.146 296C283.318 296 341.826 292.836 341.826 288.934C341.826 285.031 283.318 281.868 211.146 281.868C138.973 281.868 80.4655 285.031 80.4655 288.934C80.4655 292.836 138.973 296 211.146 296Z" fill="#6C63FF"/>
<path d="M319.633 236.975C319.633 236.975 321.69 239.666 318.681 243.712C315.673 247.758 313.193 251.197 314.186 253.731C314.186 253.731 318.723 246.189 322.428 246.085C326.133 245.98 323.694 241.511 319.633 236.975Z" fill="#6C63FF"/>
<path opacity="0.1" d="M319.633 236.975C319.81 237.236 319.952 237.519 320.053 237.817C323.656 242.05 325.574 245.999 322.113 246.096C318.884 246.189 315.014 251.953 314.089 253.409C314.118 253.522 314.154 253.633 314.197 253.742C314.197 253.742 318.734 246.201 322.439 246.096C326.144 245.991 323.694 241.511 319.633 236.975Z" fill="black"/>
<path d="M323.458 240.403C323.458 241.35 323.353 242.118 323.222 242.118C323.091 242.118 322.982 241.35 322.982 240.403C322.982 239.457 323.117 239.902 323.248 239.902C323.379 239.902 323.458 239.457 323.458 240.403Z" fill="#FFD037"/>
<path d="M324.769 241.534C323.937 241.987 323.214 242.26 323.151 242.144C323.087 242.028 323.713 241.567 324.544 241.114C325.376 240.662 325.046 240.991 325.11 241.114C325.174 241.238 325.601 241.081 324.769 241.534Z" fill="#FFD037"/>
<path d="M308.761 236.975C308.761 236.975 306.705 239.666 309.713 243.712C312.721 247.758 315.197 251.197 314.208 253.731C314.208 253.731 309.668 246.189 305.967 246.085C302.265 245.98 304.697 241.511 308.761 236.975Z" fill="#6C63FF"/>
<path opacity="0.1" d="M308.761 236.975C308.582 237.235 308.441 237.518 308.342 237.817C304.738 242.05 302.816 245.999 306.281 246.096C309.507 246.189 313.399 251.953 314.306 253.409C314.276 253.521 314.238 253.63 314.197 253.742C314.197 253.742 309.657 246.201 305.955 246.096C302.254 245.991 304.697 241.511 308.761 236.975Z" fill="black"/>
<path d="M304.936 240.403C304.936 241.35 305.041 242.118 305.172 242.118C305.304 242.118 305.412 241.35 305.412 240.403C305.412 239.457 305.277 239.902 305.146 239.902C305.015 239.902 304.936 239.457 304.936 240.403Z" fill="#FFD037"/>
<path d="M303.621 241.534C304.453 241.987 305.18 242.26 305.244 242.144C305.307 242.028 304.682 241.567 303.85 241.114C303.018 240.662 303.348 240.991 303.284 241.114C303.221 241.238 302.79 241.081 303.621 241.534Z" fill="#FFD037"/>
<path d="M305.592 253.39C305.592 253.39 311.346 253.211 313.085 251.979C314.823 250.748 321.937 249.27 322.368 251.231C322.799 253.192 331.014 261.07 324.518 261.123C318.022 261.175 309.424 260.112 307.694 259.06C305.963 258.009 305.592 253.39 305.592 253.39Z" fill="#A8A8A8"/>
<path opacity="0.2" d="M324.63 260.453C318.134 260.505 309.537 259.442 307.806 258.39C306.487 257.586 305.963 254.708 305.787 253.383H305.596C305.596 253.383 305.97 258.016 307.69 259.072C309.409 260.127 318.018 261.186 324.514 261.134C326.387 261.134 327.039 260.453 327.002 259.465C326.74 260.071 326.024 260.441 324.63 260.453Z" fill="black"/>
<path d="M100.86 255.494C101.548 254.933 102.049 254.178 102.299 253.327C102.482 252.47 102.115 251.455 101.295 251.122C100.373 250.77 99.3878 251.41 98.6385 252.054C97.8893 252.698 97.0389 253.435 96.0611 253.297C96.5639 252.842 96.9401 252.264 97.1529 251.621C97.3656 250.977 97.4076 250.29 97.2749 249.625C97.2323 249.35 97.1157 249.091 96.9377 248.877C96.4245 248.33 95.4992 248.562 94.8848 248.993C92.9367 250.362 92.3935 253.009 92.3823 255.385C92.1875 254.528 92.3523 253.634 92.3486 252.765C92.3448 251.897 92.1013 250.894 91.3596 250.434C90.8993 250.188 90.3827 250.067 89.8611 250.082C88.9845 250.048 88.0104 250.138 87.411 250.774C86.6618 251.571 86.8603 252.904 87.5084 253.768C88.1565 254.633 89.1381 255.194 90.0409 255.797C90.7675 256.228 91.3873 256.818 91.8541 257.522C91.9071 257.622 91.9522 257.726 91.9889 257.833H97.4772C98.7052 257.209 99.8432 256.422 100.86 255.494Z" fill="#6C63FF"/>
<path d="M57.2426 261.399C57.2426 261.399 51.9753 243.543 58.2278 230.403C60.8895 224.907 61.694 218.696 60.5205 212.704C59.9416 209.866 59.1026 207.088 58.0143 204.403" stroke="#535461" stroke-width="2" stroke-miterlimit="10"/>
<path d="M61.8916 196.095C61.8916 198.284 57.9281 204.631 57.9281 204.631C57.9281 204.631 53.9608 198.269 53.9608 196.095C53.9925 195.065 54.4242 194.088 55.1644 193.371C55.9046 192.654 56.8952 192.253 57.9262 192.253C58.9573 192.253 59.9479 192.654 60.6881 193.371C61.4283 194.088 61.86 195.065 61.8916 196.095Z" fill="#6C63FF"/>
<path d="M68.4476 208.217C67.26 210.055 60.4756 213.228 60.4756 213.228C60.4756 213.228 60.5992 205.743 61.7905 203.909C62.3759 203.058 63.2704 202.47 64.2837 202.268C65.297 202.066 66.3492 202.267 67.2165 202.828C68.0837 203.389 68.6976 204.266 68.9275 205.273C69.1574 206.279 68.9852 207.335 68.4476 208.217Z" fill="#6C63FF"/>
<path d="M68.1628 228.932C66.2073 229.917 58.7485 229.235 58.7485 229.235C58.7485 229.235 62.6371 222.839 64.5927 221.855C65.059 221.608 65.57 221.457 66.0956 221.41C66.6213 221.363 67.151 221.421 67.6539 221.581C68.1567 221.741 68.6225 222 69.024 222.342C69.4255 222.684 69.7547 223.103 69.9922 223.574C70.2297 224.045 70.3708 224.558 70.4072 225.084C70.4436 225.61 70.3746 226.138 70.2043 226.637C70.0339 227.136 69.7656 227.596 69.4151 227.99C69.0645 228.384 68.6388 228.705 68.1628 228.932Z" fill="#6C63FF"/>
<path d="M64.4128 244.558C62.6521 245.86 55.1859 246.429 55.1859 246.429C55.1859 246.429 57.9356 239.471 59.6813 238.169C60.097 237.829 60.5775 237.576 61.0937 237.427C61.61 237.278 62.1512 237.235 62.6845 237.301C63.2178 237.367 63.7322 237.541 64.1963 237.811C64.6604 238.082 65.0647 238.444 65.3845 238.875C65.7043 239.307 65.9331 239.799 66.0569 240.321C66.1807 240.844 66.197 241.386 66.1047 241.915C66.0124 242.444 65.8136 242.948 65.5202 243.398C65.2268 243.848 64.8449 244.234 64.3979 244.532L64.4128 244.558Z" fill="#6C63FF"/>
<path d="M52.1514 213.651C53.7211 215.174 61.0412 216.758 61.0412 216.758C61.0412 216.758 59.2468 209.493 57.6696 207.966C57.2993 207.588 56.8569 207.288 56.3686 207.083C55.8803 206.878 55.3559 206.774 54.8264 206.775C54.2969 206.776 53.7729 206.882 53.2854 207.089C52.7978 207.295 52.3566 207.597 51.9877 207.977C51.6188 208.356 51.3297 208.806 51.1375 209.299C50.9452 209.792 50.8536 210.318 50.8682 210.847C50.8827 211.376 51.0031 211.896 51.2222 212.378C51.4413 212.86 51.7547 213.292 52.1439 213.651H52.1514Z" fill="#6C63FF"/>
<path d="M47.9968 231.979C49.9524 232.963 57.4111 232.282 57.4111 232.282C57.4111 232.282 53.5225 225.889 51.567 224.901C50.6305 224.453 49.5556 224.39 48.5729 224.725C47.5902 225.06 46.778 225.766 46.3107 226.692C45.8435 227.619 45.7583 228.691 46.0735 229.679C46.3888 230.668 47.0793 231.493 47.9968 231.979Z" fill="#6C63FF"/>
<path d="M46.4084 250.347C48.1692 251.646 55.6317 252.219 55.6317 252.219C55.6317 252.219 52.8857 245.261 51.1362 243.959C50.2889 243.394 49.2568 243.177 48.2535 243.351C47.2502 243.526 46.3526 244.08 45.7465 244.897C45.1404 245.715 44.8722 246.734 44.9975 247.744C45.1228 248.753 45.632 249.676 46.4197 250.321L46.4084 250.347Z" fill="#6C63FF"/>
<path d="M61.8916 196.095C61.8916 198.284 57.9281 204.631 57.9281 204.631C57.9281 204.631 53.9608 198.269 53.9608 196.095C53.9925 195.065 54.4242 194.088 55.1644 193.371C55.9046 192.654 56.8952 192.253 57.9262 192.253C58.9573 192.253 59.9479 192.654 60.6881 193.371C61.4283 194.088 61.86 195.065 61.8916 196.095Z" fill="#6C63FF"/>
<path d="M68.4476 208.217C67.26 210.055 60.4756 213.228 60.4756 213.228C60.4756 213.228 60.5992 205.743 61.7905 203.909C62.3759 203.058 63.2704 202.47 64.2837 202.268C65.297 202.066 66.3492 202.267 67.2165 202.828C68.0837 203.389 68.6976 204.266 68.9275 205.273C69.1574 206.279 68.9852 207.335 68.4476 208.217Z" fill="#6C63FF"/>
<path d="M68.1628 228.932C66.2073 229.917 58.7485 229.235 58.7485 229.235C58.7485 229.235 62.6371 222.839 64.5927 221.855C65.059 221.608 65.57 221.457 66.0956 221.41C66.6213 221.363 67.151 221.421 67.6539 221.581C68.1567 221.741 68.6225 222 69.024 222.342C69.4255 222.684 69.7547 223.103 69.9922 223.574C70.2297 224.045 70.3708 224.558 70.4072 225.084C70.4436 225.61 70.3746 226.138 70.2043 226.637C70.0339 227.136 69.7656 227.596 69.4151 227.99C69.0645 228.384 68.6388 228.705 68.1628 228.932Z" fill="#6C63FF"/>
<path d="M64.4128 244.558C62.6521 245.86 55.1859 246.429 55.1859 246.429C55.1859 246.429 57.9356 239.471 59.6813 238.169C60.097 237.829 60.5775 237.576 61.0937 237.427C61.61 237.278 62.1512 237.235 62.6845 237.301C63.2178 237.367 63.7322 237.541 64.1963 237.811C64.6604 238.082 65.0647 238.444 65.3845 238.875C65.7043 239.307 65.9331 239.799 66.0569 240.321C66.1807 240.844 66.197 241.386 66.1047 241.915C66.0124 242.444 65.8136 242.948 65.5202 243.398C65.2268 243.848 64.8449 244.234 64.3979 244.532L64.4128 244.558Z" fill="#6C63FF"/>
<path d="M52.1514 213.651C53.7211 215.174 61.0412 216.758 61.0412 216.758C61.0412 216.758 59.2468 209.493 57.6696 207.966C57.2993 207.588 56.8569 207.288 56.3686 207.083C55.8803 206.878 55.3559 206.774 54.8264 206.775C54.2969 206.776 53.7729 206.882 53.2854 207.089C52.7978 207.295 52.3566 207.597 51.9877 207.977C51.6188 208.356 51.3297 208.806 51.1375 209.299C50.9452 209.792 50.8536 210.318 50.8682 210.847C50.8827 211.376 51.0031 211.896 51.2222 212.378C51.4413 212.86 51.7547 213.292 52.1439 213.651H52.1514Z" fill="#6C63FF"/>
<path d="M47.9968 231.979C49.9524 232.963 57.4111 232.282 57.4111 232.282C57.4111 232.282 53.5225 225.889 51.567 224.901C50.6305 224.453 49.5556 224.39 48.5729 224.725C47.5902 225.06 46.778 225.766 46.3107 226.692C45.8435 227.619 45.7583 228.691 46.0735 229.679C46.3888 230.668 47.0793 231.493 47.9968 231.979Z" fill="#6C63FF"/>
<path d="M46.4084 250.347C48.1692 251.646 55.6317 252.219 55.6317 252.219C55.6317 252.219 52.8857 245.261 51.1362 243.959C50.2889 243.394 49.2568 243.177 48.2535 243.351C47.2502 243.526 46.3526 244.08 45.7465 244.897C45.1404 245.715 44.8722 246.734 44.9975 247.744C45.1228 248.753 45.632 249.676 46.4197 250.321L46.4084 250.347Z" fill="#6C63FF"/>
<path d="M44.7863 260.277C44.7863 260.277 51.1999 259.004 52.9082 257.309C54.6164 255.613 62.3112 252.646 63.1654 254.764C64.0195 256.882 74.7038 264.09 67.4361 265.363C60.1684 266.635 50.342 267.058 48.2066 266.209C46.0713 265.359 44.7863 260.277 44.7863 260.277Z" fill="#A8A8A8"/>
<path opacity="0.2" d="M67.4473 264.569C60.1834 265.842 50.3532 266.265 48.2179 265.419C46.592 264.772 45.4606 261.676 45.0148 260.228L44.7863 260.277C44.7863 260.277 46.0713 265.363 48.2066 266.209C50.342 267.055 60.1721 266.632 67.4361 265.363C69.534 264.989 70.1334 264.132 69.9086 263.042C69.74 263.75 69.0095 264.296 67.4473 264.569Z" fill="black"/>
<path d="M271.329 98.0491C273.341 95.8036 272.554 92.3042 272.554 92.3042C272.554 92.3042 263.061 68.1344 262.008 67.8686C260.956 67.6029 258.314 61.5062 258.314 61.5062C258.314 61.5062 233.001 37.4674 232.091 37.4674C231.18 37.4674 221.939 30.8279 220.755 30.697C219.571 30.566 217.72 29.8998 215.742 28.8256C213.764 27.7515 193.722 28.9604 192.931 29.8885C192.141 30.8167 188.436 31.4829 188.436 31.4829C188.436 31.4829 180.921 31.8796 179.865 33.2082C178.808 34.5369 171.035 35.2405 171.035 35.2405C171.035 35.2405 167.21 36.6627 172.402 40.439C170.739 40.701 168.794 40.9031 166.82 41.0453C166.326 41.079 165.824 41.1127 165.322 41.1389H165.026C164.694 40.1374 164.048 39.2697 163.182 38.665C162.617 38.3581 162.033 38.0869 161.433 37.8528C160.505 37.3596 159.635 36.7633 158.841 36.0751C154.997 33.0216 150.896 30.3068 146.583 27.9611C145.917 27.5447 145.174 27.2659 144.399 27.1415C142.792 26.988 141.357 28.1145 139.783 28.4926C137.019 29.155 134.232 27.4708 131.388 27.4446C127.837 27.4109 124.604 30.173 123.521 33.5788C123.12 34.84 122.94 36.2435 122.075 37.2428C120.951 38.549 119.052 38.7398 117.512 39.5146C116.396 40.0959 115.462 40.9716 114.809 42.0464C114.156 43.1213 113.811 44.3542 113.811 45.6113V45.6412C113.811 45.8396 113.811 46.038 113.845 46.2363C114.021 47.8382 114.762 49.3165 115.306 50.836C115.864 52.3929 116.216 54.0159 116.354 55.664C116.356 55.6814 116.356 55.6989 116.354 55.7164C116.377 55.9896 116.396 56.2628 116.407 56.5397C116.407 56.5959 116.407 56.6558 116.407 56.7156C116.407 56.9776 116.407 57.2434 116.407 57.5091C116.407 58.9388 116.358 60.3797 116.362 61.8093V61.8842V62.5317C116.362 62.5841 116.362 62.6365 116.362 62.6889C116.362 62.8797 116.362 63.0631 116.384 63.2652V63.4673C116.384 63.6432 116.411 63.8229 116.429 63.9988C116.429 64.0736 116.429 64.1522 116.448 64.2271C116.448 64.3992 116.489 64.5677 116.512 64.7361L116.546 64.9756C116.572 65.144 116.602 65.3124 116.632 65.4809L116.677 65.7129C116.714 65.8925 116.759 66.0872 116.804 66.2518C116.823 66.3155 116.834 66.3753 116.849 66.439C116.916 66.6885 116.991 66.928 117.074 67.1576C117.635 68.729 118.561 70.1452 119.776 71.2896C120.991 72.434 122.461 73.2741 124.064 73.7408C124.668 73.9071 125.293 73.9853 125.919 73.9729C127.043 73.9467 128.118 73.5986 128.785 72.8314C128.949 73.0185 129.11 73.2056 129.283 73.3928C131.726 76.0475 134.774 78.0744 138.169 79.3017C141.563 80.5291 145.204 80.9206 148.782 80.4432C152.36 79.9657 155.77 78.6334 158.723 76.559C161.676 74.4847 164.085 71.7296 165.745 68.5273C166.138 68.4413 166.528 68.3627 166.921 68.2878C167.603 68.1606 168.289 68.0408 168.978 67.9136L169.641 67.8088L169.903 67.7639C173.275 67.2324 176.549 66.8769 178.894 66.6411L169.626 67.7901C169.626 67.7901 167.378 78.5725 166.73 79.7664C166.082 80.9603 168.978 82.9514 168.978 82.9514C168.978 82.9514 171.484 86.0054 171.484 86.9373C171.484 87.8692 174.384 90.5227 175.174 91.9823C175.275 92.1675 175.401 92.3376 175.549 92.4876C174.964 92.7138 174.423 93.042 173.953 93.4569C172.121 95.1898 172.732 98.2288 171.893 100.609C171.368 102.106 170.27 103.319 169.214 104.498C168.835 104.883 168.516 105.323 168.27 105.804C168.133 106.122 168.048 106.461 168.019 106.807C168 106.998 167.993 107.191 167.996 107.383V107.451C167.996 107.6 167.996 107.746 168.026 107.892C168.026 107.956 168.026 108.019 168.026 108.083C168.21 109.648 168.742 111.16 168.903 112.724C169.064 114.288 168.869 115.864 169.191 117.387C169.303 117.918 169.477 118.435 169.708 118.925L164.344 124.914C164.344 124.914 164.31 125.209 164.299 125.696C159.826 129.405 152.91 136.403 155.379 142.575C155.649 143.251 155.899 143.899 156.128 144.517C154.311 145.674 153.712 147.048 156.436 148.417C156.866 148.634 157.282 148.822 157.691 148.99C159.088 153.088 159.635 154.23 161.976 151.209C162.227 150.88 162.519 150.461 162.838 150.008C166.135 149.941 168.041 148.417 168.041 148.417C168.041 148.417 177.268 147.886 179.655 149.349C180.85 150.098 183.659 150.247 186.147 150.229C186.114 152.906 186.239 155.583 186.522 158.245C186.522 158.245 186.124 169.533 187.181 171.925C188.237 174.316 188.822 178.433 188.822 178.433C188.822 178.433 187.05 182.415 188.102 184.541C189.155 186.667 187.181 189.721 187.181 189.721V197.554L187.93 197.502C187.874 198.029 187.803 198.583 187.709 199.111C187.492 200.335 187.166 201.431 186.664 201.787C185.345 202.734 185.214 207.775 185.214 207.775C185.214 207.775 183.105 213.887 183.498 214.95C183.892 216.013 180.996 218.135 181.655 219.729C182.315 221.324 183.663 231.414 184.836 234.325C186.008 237.237 182.446 236.451 182.446 236.451L183.498 244.019C183.498 244.019 184.555 251.721 183.764 252.253C182.974 252.784 178.426 256.635 181.554 258.892C181.798 259.068 182.045 259.229 182.303 259.382C182.317 259.732 182.308 260.082 182.277 260.43C182.217 261.025 182.067 261.501 181.734 261.553C180.805 261.688 178.958 262.616 178.568 262.219C178.179 261.822 175.946 263.222 173.698 263.679L173.387 263.727L170.469 262.979C166.247 261.372 161.612 261.201 157.282 262.492C157.282 262.492 155.166 262.822 154.139 264.401C153.618 265.209 153.39 266.347 153.854 267.934C155.263 272.627 164.865 274.244 164.865 274.244C164.865 274.244 168.191 274.929 172.188 275.835C172.057 275.835 171.922 275.835 171.788 275.835C170.684 275.827 169.618 276.233 168.8 276.972C167.982 277.711 167.47 278.73 167.367 279.828C167.264 280.925 167.576 282.021 168.242 282.9C168.909 283.778 169.88 284.375 170.965 284.573C172.051 284.771 173.171 284.555 174.105 283.968C175.039 283.382 175.718 282.466 176.01 281.403C176.301 280.34 176.183 279.207 175.679 278.226C175.175 277.246 174.321 276.49 173.286 276.108C177.782 277.141 182.76 278.398 184.783 279.285C186.289 279.852 187.833 280.315 189.402 280.67C189.48 281.599 189.852 282.479 190.464 283.182C191.077 283.885 191.898 284.374 192.808 284.579C193.719 284.783 194.67 284.693 195.525 284.319C196.38 283.946 197.094 283.31 197.562 282.504C203.679 283.78 209.572 284.862 209.572 284.862L219.414 285.023H219.481C218.321 285.031 217.212 285.498 216.396 286.321C215.58 287.145 215.124 288.258 215.128 289.417C215.132 290.575 215.595 291.685 216.417 292.503C217.238 293.321 218.351 293.781 219.511 293.781C220.671 293.781 221.783 293.321 222.605 292.503C223.427 291.685 223.89 290.575 223.894 289.417C223.898 288.258 223.442 287.145 222.626 286.321C221.81 285.498 220.701 285.031 219.541 285.023L234.44 285.266C234.261 285.872 234.215 286.509 234.305 287.134C234.395 287.759 234.618 288.358 234.961 288.889C235.303 289.419 235.756 289.87 236.288 290.211C236.821 290.551 237.421 290.773 238.046 290.86C238.672 290.948 239.31 290.9 239.916 290.72C240.522 290.539 241.081 290.23 241.557 289.814C242.032 289.398 242.412 288.884 242.671 288.308C242.93 287.732 243.061 287.107 243.056 286.475C243.055 286.114 243.01 285.755 242.921 285.405L256.063 285.618L258.685 282.736C258.832 282.456 258.92 282.149 258.944 281.834C259.023 280.887 258.532 279.45 255.175 278.84C254.928 278.795 248.08 278.904 242.03 279.005V276.632C242.03 276.632 241.861 275.326 241.756 273.788C241.726 273.335 241.7 272.863 241.689 272.399C242.031 272.633 242.411 272.807 242.813 272.912C245.319 273.312 248.747 266.007 248.747 266.007C248.747 266.007 248.747 261.89 249.537 258.57C250.328 255.25 251.785 244.094 251.785 244.094L254.954 230.684C254.954 230.684 256.265 203.325 255.606 202.262C254.947 201.199 256.4 199.339 256.4 199.339C256.4 199.339 257.453 193.497 255.872 191.506C254.291 189.515 256.794 187.52 256.794 187.52C256.794 187.52 257.453 180.615 255.606 177.962C253.759 175.308 256.471 173.448 256.471 173.448L257.131 162.692C259.899 159.903 262.402 143.305 262.537 139.719C262.571 137.701 263.02 135.712 263.855 133.873C263.855 133.873 265.698 131.085 265.964 129.225C266.23 127.365 268.212 123.518 268.212 123.518L271.64 110.767C273.022 105.624 272.67 101.822 271.752 99.112C271.617 98.7303 271.475 98.3822 271.329 98.0491ZM209.4 98.7977C211.509 100.126 210.85 100.523 211.509 101.32C212.168 102.117 211.64 101.983 211.112 103.311C210.584 104.64 210.981 104.243 211.243 105.703C211.505 107.162 211.378 107.162 211.378 107.162L212.037 107.256L211.119 113.42C209.621 114.397 208.935 116.268 208.624 118.199C207.74 117.047 206.849 115.849 206.051 114.734C206.324 114.124 206.272 113.398 206.279 112.713C206.309 110.467 207.148 108.323 207.534 106.111C207.928 103.861 207.856 101.554 207.321 99.3328C207.129 98.4972 206.833 97.6888 206.44 96.9263C207.294 97.4952 208.377 98.1689 209.4 98.8126V98.7977ZM211.771 228.94C211.771 228.94 213.438 227.817 215.057 226.795C215.6 230.736 216.113 234.834 216.476 238.54C215.896 237.252 215.491 236.376 215.491 236.376C214.897 235.662 214.54 234.78 214.472 233.854C214.409 232.409 211.771 228.955 211.771 228.955V228.94ZM201.885 92.4389C202.26 92.4913 202.791 92.9667 203.293 93.5355C202.829 93.1613 202.361 92.787 201.881 92.4352L201.885 92.4389ZM177.755 141.572C176.234 142.051 171.08 141.98 168.015 141.8C169.161 139.843 170.3 137.852 171.312 136.067C171.908 136.221 172.516 136.33 173.129 136.392L183.165 127.586C186.94 128.909 191.058 128.882 194.816 127.511L195.089 127.938C195.205 128.125 195.329 128.312 195.464 128.522L195.213 128.114C195.213 128.114 191.339 130.419 191.733 131.482C192.126 132.545 191.208 135.198 189.758 138.043C189.384 138.754 189.058 139.457 188.743 140.165C185.461 140.472 179.276 141.093 177.755 141.572ZM196.798 264.27L196.741 263.218C197.378 263.08 197.798 262.953 197.798 262.953C197.666 261.392 197.446 259.84 197.138 258.304C196.741 256.71 196.947 257.241 198.491 256.059C200.034 254.876 198.491 241.463 198.491 241.463C198.491 241.463 199.24 240.531 200.428 242.922C201.615 245.314 202.806 246.773 203.204 246.904C203.601 247.035 201.619 249.696 203.204 252.219C204.187 253.851 204.857 255.652 205.178 257.53C205.178 257.53 204.125 261.748 205.706 263.623C205.92 263.841 206.174 264.015 206.455 264.135C206.455 264.483 206.455 264.854 206.455 265.202C206.455 265.902 206.455 266.501 206.422 266.628C206.406 266.718 206.368 266.802 206.31 266.872C206.253 266.943 206.178 266.997 206.093 267.031C206.008 267.064 205.917 267.074 205.826 267.062C205.736 267.049 205.651 267.013 205.579 266.957C205.17 266.692 202.582 267.287 202.758 268.952C202.146 269.675 201.452 270.324 200.69 270.887L197.097 269.959L196.798 264.27Z" fill="url(#paint0_linear_11_331)"/>
<path d="M164.441 126.688C164.441 126.688 163.186 136.961 173.14 138.013L174.638 130.902L171.503 126.688L167.011 125.168L164.441 126.688Z" fill="#6C63FF"/>
<path opacity="0.1" d="M167.011 125.168L164.441 126.684C164.441 126.684 163.186 136.957 173.14 138.009" fill="black"/>
<path d="M182.502 68.5985C182.502 68.5985 175.785 69.0101 169.049 70.1254C168.36 70.2427 167.674 70.3675 166.992 70.4997C166.595 70.5746 166.206 70.6532 165.816 70.7392C162.287 71.4653 159.073 72.4084 157.2 73.6136C154.952 75.0545 154.203 71.1734 154.132 65.7803C154.102 63.8828 154.165 61.8019 154.266 59.6985C154.398 57.2658 154.589 54.8032 154.791 52.5875C155.237 47.6772 155.75 43.8597 155.75 43.8597C155.75 43.8597 158.103 43.8597 161.246 43.7512L162.257 43.7138C163.242 43.6764 164.288 43.624 165.34 43.5603C165.839 43.5341 166.341 43.5042 166.839 43.4668C168.832 43.3245 170.799 43.1224 172.458 42.8605C174.226 42.576 175.661 42.2167 176.44 41.7377C179.999 39.6194 182.502 68.5985 182.502 68.5985Z" fill="#F8BDC5"/>
<path d="M212.431 106.534L211.119 115.228C211.119 115.228 208.261 118.783 208.636 120.759C209.01 122.735 212.307 210.066 212.307 210.066C212.307 210.066 218.769 246.945 216.525 251.687C214.281 256.429 216.394 267.496 216.394 267.496L229.843 265.389L234.339 104.161L212.431 106.534Z" fill="#474463"/>
<path opacity="0.1" d="M212.431 106.534L211.119 115.228C211.119 115.228 208.261 118.783 208.636 120.759C209.01 122.735 212.307 210.066 212.307 210.066C212.307 210.066 218.769 246.945 216.525 251.687C214.281 256.429 216.394 267.496 216.394 267.496L229.843 265.389L234.339 104.161L212.431 106.534Z" fill="black"/>
<path d="M242.097 269.734C241.67 270.442 241.704 272.523 241.824 274.293C241.928 275.816 242.097 277.111 242.097 277.111V286.067C242.097 286.067 227.726 281.063 219.814 275.794C216.551 273.619 215.622 271.598 215.802 269.981C216.064 267.68 218.574 266.179 219.814 266.179C220.998 266.179 224.737 264.117 227.801 262.294C230.21 260.868 232.211 259.592 232.211 259.592C232.211 259.592 242.887 268.417 242.097 269.734Z" fill="#575988"/>
<path opacity="0.1" d="M242.097 269.734C241.67 270.442 241.704 272.523 241.824 274.293C238.628 272.796 228.734 263.207 227.801 262.294C230.21 260.868 232.211 259.592 232.211 259.592C232.211 259.592 242.887 268.417 242.097 269.734Z" fill="black"/>
<path d="M271.632 112.593L268.205 125.239C268.205 125.239 266.227 129.057 265.957 130.902C265.687 132.747 263.848 135.513 263.848 135.513C263.015 137.333 262.566 139.305 262.529 141.306C262.398 144.866 259.907 161.329 257.123 164.095L256.464 174.765C256.464 174.765 253.841 176.607 255.673 179.256C257.505 181.906 256.861 188.74 256.861 188.74C256.861 188.74 254.355 190.716 255.939 192.692C257.524 194.669 256.464 200.466 256.464 200.466C256.464 200.466 255.014 202.307 255.673 203.363C256.333 204.418 255.022 231.552 255.022 231.552L251.852 244.853C251.852 244.853 250.399 255.92 249.604 259.214C248.81 262.507 248.814 266.587 248.814 266.587C248.814 266.587 245.386 273.832 242.88 273.439C240.374 273.047 228.247 261.186 228.247 261.186L229.959 221.14C229.959 221.14 231.409 204.149 230.487 200.855C229.566 197.562 228.906 181.098 228.906 181.098L227.06 155.15L208.621 126.171C208.621 126.171 207.283 117.739 211.104 115.239L211.797 110.684L212.423 106.545L234.312 104.172L267.8 95.4817C267.8 95.4817 270.381 97.0723 271.734 101.043C272.659 103.719 273.015 107.492 271.632 112.593Z" fill="#474463"/>
<path d="M213.367 125.917C213.367 125.917 197.809 145.004 198.468 139.671C198.88 136.321 196.753 132.23 195.097 129.644C194.119 128.106 193.31 127.099 193.31 127.099C193.31 127.099 202.803 109.715 203.331 112.084C203.5 112.832 204.597 114.55 206.009 116.511C208.988 120.621 213.367 125.917 213.367 125.917Z" fill="#FFC1C8"/>
<path opacity="0.3" d="M242.097 284.203V286.075C242.097 286.075 227.726 281.071 219.814 275.801C216.551 273.627 215.622 271.606 215.802 269.989C220.17 272.197 228.296 276.407 230.757 278.305C232.848 279.914 238.25 282.463 242.097 284.203Z" fill="white"/>
<path d="M238.714 291.31C241.141 291.31 243.109 289.345 243.109 286.92C243.109 284.496 241.141 282.53 238.714 282.53C236.287 282.53 234.32 284.496 234.32 286.92C234.32 289.345 236.287 291.31 238.714 291.31Z" fill="#474463"/>
<path d="M193.827 285.146C196.254 285.146 198.221 283.181 198.221 280.756C198.221 278.332 196.254 276.366 193.827 276.366C191.4 276.366 189.432 278.332 189.432 280.756C189.432 283.181 191.4 285.146 193.827 285.146Z" fill="#474463"/>
<path d="M259.011 282.317C258.987 282.63 258.899 282.934 258.753 283.211L256.13 286.067L219.477 285.479L209.621 285.319C209.621 285.319 188.874 281.546 184.832 279.787C180.79 278.028 164.898 274.809 164.898 274.809C164.898 274.809 155.3 273.2 153.892 268.548C153.416 266.972 153.656 265.846 154.177 265.045C155.199 263.477 157.32 263.147 157.32 263.147C161.651 261.869 166.281 262.04 170.506 263.634L231.945 279.424L232.896 279.667C232.896 279.667 254.797 279.259 255.239 279.338C258.599 279.952 259.09 281.378 259.011 282.317Z" fill="#6C63FF"/>
<path opacity="0.3" d="M259.011 282.317C255.325 281.838 248.896 281.131 247.241 281.812C247.241 281.812 235.549 280.367 219.462 285.48L209.621 285.319C209.621 285.319 188.874 281.546 184.832 279.787C180.79 278.028 164.898 274.809 164.898 274.809C164.898 274.809 155.3 273.2 153.892 268.548C153.416 266.972 153.656 265.846 154.177 265.045C154.832 266.954 156.095 269.719 158.11 270.494C161.276 271.71 174.286 274.188 174.286 274.188L200.038 280.487C200.038 280.487 214.907 283.709 220.695 281.61C223.066 280.756 227.517 279.997 231.933 279.401L232.885 279.645C232.885 279.645 254.786 279.237 255.228 279.315C258.599 279.952 259.09 281.378 259.011 282.317Z" fill="white"/>
<path d="M223.448 277.575C223.417 278.127 223.348 278.676 223.242 279.218C223.242 279.218 208.677 279.738 201.094 278.615C199 278.305 197.816 277.635 197.228 276.834C196.966 276.456 196.803 276.017 196.755 275.559C196.707 275.101 196.776 274.639 196.955 274.214C197.039 273.97 197.145 273.735 197.273 273.511C197.839 272.523 198.708 271.823 199.184 271.916C200.503 272.182 202.765 269.48 202.765 269.48C202.585 267.829 205.182 267.234 205.586 267.504C205.658 267.559 205.744 267.595 205.834 267.608C205.924 267.621 206.016 267.61 206.101 267.577C206.186 267.544 206.26 267.489 206.318 267.419C206.375 267.348 206.414 267.264 206.429 267.174C206.455 267.051 206.463 266.456 206.463 265.76C206.463 264.599 206.429 263.14 206.429 263.14L221.069 264.918L221.65 267.713C222.182 270.206 222.924 273.63 223.242 274.802C223.464 275.708 223.533 276.646 223.448 277.575Z" fill="#474463"/>
<path opacity="0.1" d="M223.448 277.575C223.417 278.127 223.348 278.676 223.242 279.218C223.242 279.218 208.677 279.738 201.094 278.615C199 278.305 197.816 277.635 197.228 276.834C199.173 276.718 201.701 276.654 203.267 277.036C205.5 277.59 218.855 277.59 223.448 277.575Z" fill="black"/>
<path d="M197.258 273.503C197.274 273.638 197.253 273.775 197.197 273.899C197.141 274.023 197.052 274.129 196.94 274.207C195.097 275.629 186.252 274.083 186.252 274.083C186.252 274.083 168.18 272.96 165.479 271.119C165.235 270.959 165.031 270.745 164.883 270.494C163.759 268.466 167.828 265.06 168.18 265.06C168.532 265.06 173.391 264.397 173.717 264.334C175.965 263.881 178.212 262.489 178.587 262.885C178.962 263.282 180.835 262.358 181.749 262.227C182.082 262.178 182.236 261.706 182.292 261.104C182.345 260.288 182.317 259.47 182.21 258.66L196.644 262.541L196.771 264.839L197.187 272.489L197.24 273.428C197.249 273.452 197.255 273.478 197.258 273.503Z" fill="#474463"/>
<path opacity="0.1" d="M186.267 274.083C186.267 274.083 168.195 272.96 165.494 271.119C165.25 270.959 165.046 270.745 164.898 270.494C168.558 270.793 174.661 271.299 175.762 271.579C177.347 271.954 186.252 272.5 186.252 272.5H197.202L197.255 273.439C197.73 276.089 186.267 274.083 186.267 274.083Z" fill="black"/>
<path d="M171.821 285.146C174.248 285.146 176.216 283.181 176.216 280.756C176.216 278.332 174.248 276.366 171.821 276.366C169.394 276.366 167.427 278.332 167.427 280.756C167.427 283.181 169.394 285.146 171.821 285.146Z" fill="#474463"/>
<path d="M219.548 294.26C221.975 294.26 223.943 292.294 223.943 289.87C223.943 287.445 221.975 285.479 219.548 285.479C217.121 285.479 215.154 287.445 215.154 289.87C215.154 292.294 217.121 294.26 219.548 294.26Z" fill="#474463"/>
<path d="M174.856 131.43C174.856 131.43 174.024 132.927 172.773 135.15C169.776 140.434 164.385 149.802 162.066 152.766C158.769 156.98 159.035 153.032 155.473 144.207C152.828 137.642 160.968 130.131 165.322 126.718C166.82 125.531 167.869 124.846 167.869 124.846L174.856 131.43Z" fill="#F8BDC5"/>
<path d="M190.807 141.572C190.807 141.572 179.864 142.493 177.755 143.151C175.646 143.81 166.55 143.413 165.767 143.151C164.984 142.889 149.415 146.445 156.537 150C163.658 153.556 168.15 150 168.15 150C168.15 150 177.381 149.473 179.763 150.925C182.146 152.377 190.837 151.584 190.837 151.584L190.807 141.572Z" fill="#FFC1C8"/>
<path opacity="0.1" d="M168.075 60.9598C169.424 64.4068 168.581 67.4083 166.992 70.4885C163.014 71.237 159.271 72.2663 157.189 73.6024C151.254 77.4236 155.739 43.8336 155.739 43.8336C155.739 43.8336 158.608 43.8336 162.246 43.6876C161.145 48.7102 165.318 53.9237 168.075 60.9598Z" fill="black"/>
<path d="M168.412 60.2113C168.405 65.7282 166.366 71.0494 162.682 75.1599C158.999 79.2705 153.93 81.8827 148.443 82.4982C142.955 83.1137 137.432 81.6894 132.928 78.4972C128.425 75.3049 125.255 70.5679 124.023 65.19C122.792 59.812 123.585 54.1693 126.252 49.3384C128.919 44.5074 133.272 40.8263 138.482 38.9971C143.692 37.168 149.394 37.3188 154.499 39.4209C159.605 41.523 163.757 45.4292 166.164 50.3944C167.648 53.4545 168.417 56.8112 168.412 60.2113Z" fill="#F8BDC5"/>
<path opacity="0.1" d="M271.741 101.032C271.029 102.067 269.963 102.805 268.744 103.109C263.6 104.558 227.341 113.252 224.969 112.724C222.875 112.26 213.888 110.969 211.816 110.673L212.442 106.534L234.331 104.161L267.819 95.4705C267.819 95.4705 270.389 97.0611 271.741 101.032Z" fill="black"/>
<path opacity="0.1" d="M182.502 68.5984C178.216 68.8551 173.946 69.3298 169.708 70.0206C169.769 69.828 169.761 69.6205 169.686 69.433L178.452 68.3514C178.452 68.3514 177.171 47.767 172.458 42.8342C174.226 42.5498 175.661 42.1905 176.44 41.7115C179.999 39.6193 182.502 68.5984 182.502 68.5984Z" fill="black"/>
<path d="M171.035 37.6845C171.035 37.6845 178.816 36.9846 179.868 35.6672C180.921 34.3498 188.44 33.9568 188.44 33.9568C188.44 33.9568 192.13 33.2981 192.935 32.3737C193.741 31.4492 213.764 30.2666 215.742 31.322C217.72 32.3774 219.567 33.0324 220.755 33.1671C221.942 33.3018 231.169 39.8814 232.091 39.8814C233.012 39.8814 258.314 63.7256 258.314 63.7256C258.314 63.7256 260.937 69.7849 262.008 70.0469C263.08 70.3089 272.558 94.2841 272.558 94.2841C272.558 94.2841 273.876 100.078 268.737 101.53C263.597 102.982 227.333 111.672 224.962 111.145C222.59 110.617 211.382 109.037 211.382 109.037C211.382 109.037 211.513 109.037 211.25 107.589C210.988 106.141 210.591 106.534 211.116 105.216C211.64 103.899 212.172 104.03 211.513 103.24C210.853 102.45 211.513 102.054 209.404 100.736C207.294 99.419 204.908 97.9706 204.788 97.5776C204.668 97.1846 202.81 94.5461 201.889 94.4151C200.967 94.2841 175.122 87.0384 175.122 87.0384L169.057 85.0623C169.057 85.0623 166.157 83.0862 166.809 81.9035C167.461 80.7208 169.705 70.0207 169.705 70.0207L178.977 68.8792C178.977 68.8792 177.594 46.5732 172.402 42.8306C167.21 39.0879 171.035 37.6845 171.035 37.6845Z" fill="#6C63FF"/>
<path opacity="0.1" d="M174.856 131.43C174.856 131.43 174.024 132.927 172.773 135.15C172.578 128.278 167.768 126.946 165.322 126.718C166.82 125.531 167.869 124.846 167.869 124.846L174.856 131.43Z" fill="black"/>
<path d="M168.412 81.5068L169.049 85.0623C169.049 85.0623 171.555 88.0938 171.555 89.0145C171.555 89.9352 174.455 92.57 175.249 94.0183C176.043 95.4667 178.808 95.7325 177.752 98.2363C176.695 100.74 170.634 119.839 170.634 119.839L164.437 126.688C164.437 126.688 174.721 125.763 173.136 138.013L186.454 126.411L196.884 107.454C196.884 107.454 186.731 88.2248 186.338 86.6454C185.945 85.066 168.412 81.5068 168.412 81.5068Z" fill="#6C63FF"/>
<path opacity="0.1" d="M199.248 88.0938C199.248 88.0938 207.684 82.1655 207.684 81.5068C207.684 80.8481 199.248 88.0938 199.248 88.0938Z" fill="black"/>
<path opacity="0.1" d="M213.367 95.4705C213.367 95.4705 217.863 94.415 218.237 92.046C218.612 89.6769 213.367 95.4705 213.367 95.4705Z" fill="black"/>
<path opacity="0.1" d="M217.046 101.53C217.046 101.53 223.377 98.3972 223.111 97.8545C222.845 97.3118 217.046 101.53 217.046 101.53Z" fill="black"/>
<path opacity="0.1" d="M250.931 81.4656C250.931 81.4656 248.308 83.1759 249.088 84.7778C249.867 86.3796 250.931 81.4656 250.931 81.4656Z" fill="black"/>
<path opacity="0.1" d="M258.697 82.1655C258.697 82.1655 251.227 89.2764 252.916 89.4112C254.606 89.5459 258.697 82.1655 258.697 82.1655Z" fill="black"/>
<path opacity="0.1" d="M241.704 192.416C241.704 192.416 251.328 194.261 251.59 194.919C251.852 195.578 241.704 192.416 241.704 192.416Z" fill="black"/>
<path opacity="0.1" d="M245.131 198.737C245.131 198.737 250.271 201.899 250.402 202.82C250.534 203.741 245.131 198.737 245.131 198.737Z" fill="black"/>
<path opacity="0.1" d="M243.944 205.852C243.944 205.852 244.734 209.407 246.053 209.935C247.372 210.462 243.944 205.852 243.944 205.852Z" fill="black"/>
<path opacity="0.1" d="M166.187 50.2784C166.187 50.3158 166.187 50.357 166.168 50.3944C165.988 51.5658 165.509 52.8346 164.407 53.2238C163.742 53.4108 163.031 53.3455 162.411 53.0404C160.538 52.2208 158.871 50.2522 156.87 50.7275C155.919 50.952 155.252 51.6744 154.78 52.5614C154.452 53.1998 154.201 53.8743 154.03 54.5711C153.656 56.0383 153.356 57.6326 153.929 59.0286C154.024 59.257 154.136 59.4773 154.266 59.6873C154.798 60.5369 155.548 61.2592 156.072 62.1163C156.724 63.1867 156.893 64.7922 155.877 65.5258C155.623 65.6931 155.334 65.8017 155.032 65.8437C154.73 65.8858 154.422 65.8603 154.132 65.7691C153.388 65.5356 152.673 65.2192 152 64.8259C150.674 64.1335 149.003 63.7031 147.744 64.5041C147.31 64.7735 146.961 65.1628 146.545 65.4472C145.681 65.982 144.656 66.1953 143.65 66.0498C141.267 65.8065 140.375 64.2982 138.555 63.1305C137.221 62.2697 134.434 61.9029 133.64 63.662C133.13 64.7848 133.887 66.1995 133.389 67.3447C132.89 68.4899 131.306 68.8418 130.571 69.9047C129.605 71.3044 130.504 73.3292 129.796 74.8823C129.688 75.123 129.542 75.3452 129.365 75.541C125.395 71.2675 123.239 65.6225 123.349 59.7932C123.46 53.9639 125.829 48.4045 129.958 44.2843C134.087 40.164 139.655 37.8039 145.49 37.7003C151.325 37.5967 156.973 39.7577 161.246 43.7288L162.257 43.6914C163.242 43.6539 164.288 43.6015 165.34 43.5379C165.589 44.0645 165.784 44.615 165.921 45.1809C166.329 46.8484 166.419 48.5776 166.187 50.2784Z" fill="black"/>
<path d="M133.104 63.138C132.591 64.2608 133.347 65.6755 132.853 66.817C132.358 67.9585 130.763 68.314 130.036 69.3769C129.065 70.7804 129.965 72.8052 129.26 74.3546C128.451 76.1249 126.009 76.4018 124.135 75.8853C122.535 75.4288 121.067 74.5984 119.851 73.4628C118.636 72.3272 117.708 70.919 117.145 69.3545C115.875 65.7428 116.695 61.7682 116.366 57.9544C116.225 56.3201 115.873 54.711 115.317 53.1676C114.774 51.6706 114.032 50.196 113.856 48.6054C113.73 47.2558 114.011 45.8994 114.664 44.7113C115.318 43.5231 116.312 42.5578 117.52 41.9398C119.063 41.1913 120.962 40.9779 122.086 39.6942C122.948 38.6987 123.131 37.3102 123.532 36.0564C124.615 32.688 127.848 29.9409 131.399 29.9746C134.239 29.9971 137.019 31.67 139.795 31.0113C141.364 30.6371 142.792 29.5143 144.41 29.6752C145.185 29.797 145.928 30.0732 146.594 30.4874C150.903 32.8124 155.003 35.5046 158.848 38.534C159.644 39.2184 160.515 39.8098 161.444 40.2968C162.043 40.5299 162.627 40.7986 163.194 41.1014C164.404 41.85 165.037 43.2759 165.382 44.6607C165.795 46.3271 165.889 48.0567 165.659 49.7581C165.494 50.9595 165.022 52.3068 163.879 52.7073C163.212 52.8933 162.499 52.8253 161.879 52.5164C160.006 51.7043 158.342 49.7357 156.342 50.2072C154.708 50.5815 153.922 52.4303 153.495 54.0509C153.12 55.518 152.813 57.1124 153.394 58.5121C153.873 59.6723 154.892 60.5219 155.533 61.596C156.173 62.6701 156.357 64.2757 155.338 65.0055C154.214 65.8177 152.689 64.9531 151.457 64.3094C150.138 63.617 148.46 63.1866 147.205 63.9838C146.774 64.2533 146.426 64.6425 146.006 64.9307C145.141 65.4603 144.118 65.6721 143.114 65.5295C140.728 65.2862 139.836 63.778 138.019 62.6103C136.682 61.742 133.902 61.3752 133.104 63.138Z" fill="#474463"/>
<path opacity="0.1" d="M206.013 116.493C205.912 117.054 205.14 117.118 204.983 117.664C203.485 122.945 200.188 127.694 195.1 129.641C194.123 128.102 193.313 127.096 193.313 127.096C193.313 127.096 202.806 109.711 203.335 112.08C203.503 112.818 204.601 114.532 206.013 116.493Z" fill="black"/>
<path d="M206.294 112.855C206.295 116.294 205.275 119.656 203.363 122.516C201.451 125.376 198.733 127.606 195.552 128.922C192.372 130.239 188.872 130.584 185.496 129.913C182.119 129.243 179.018 127.587 176.583 125.155C174.149 122.724 172.491 119.625 171.819 116.252C171.147 112.879 171.491 109.383 172.809 106.205C174.126 103.028 176.357 100.312 179.219 98.4012C182.081 96.4904 185.447 95.4705 188.889 95.4705C191.177 95.462 193.444 95.9059 195.559 96.7766C197.674 97.6472 199.596 98.9274 201.214 100.543C202.832 102.159 204.113 104.079 204.985 106.192C205.857 108.305 206.302 110.569 206.294 112.855Z" fill="#FFC1C8"/>
<path opacity="0.1" d="M196.674 262.552L196.801 264.85C195.276 265.187 192.377 265.629 190.687 264.596C188.503 263.26 185.278 262.934 182.322 261.115C182.375 260.3 182.347 259.481 182.24 258.671L196.674 262.552Z" fill="black"/>
<path opacity="0.1" d="M221.65 267.721C221.549 268.234 221.455 268.548 221.455 268.548C221.455 268.548 209.823 267.358 206.47 265.752C206.47 264.592 206.437 263.132 206.437 263.132L221.077 264.91L221.65 267.721Z" fill="black"/>
<path d="M219.024 215.466C218.233 217.573 217.836 217.97 218.631 219.022C219.425 220.073 219.024 225.609 217.765 226.133C216.506 226.657 211.771 229.819 211.771 229.819C211.771 229.819 214.394 233.244 214.472 234.685C214.541 235.605 214.898 236.481 215.491 237.188C215.491 237.188 219.552 245.883 220.361 248.648C221.171 251.414 221.912 255.759 221.912 255.759C221.912 255.759 220.492 259.712 221.474 261.953C222.455 264.195 221.474 267.485 221.474 267.485C221.474 267.485 207.309 266.037 205.74 264.176C204.17 262.316 205.215 258.132 205.215 258.132C204.892 256.268 204.221 254.48 203.237 252.863C201.653 250.359 203.612 247.728 203.237 247.593C202.863 247.458 201.653 246.014 200.461 243.644C199.27 241.275 198.528 242.192 198.528 242.192C198.528 242.192 200.072 255.497 198.528 256.684C196.985 257.87 196.775 257.342 197.172 258.929C197.48 260.452 197.7 261.992 197.831 263.54C197.831 263.54 193.085 264.989 190.714 263.54C188.342 262.092 184.772 261.826 181.636 259.588C178.501 257.35 183.056 253.529 183.847 253.001C184.637 252.473 183.584 244.835 183.584 244.835L182.528 237.327C182.528 237.327 186.087 238.117 184.918 235.22C183.749 232.323 182.397 222.312 181.738 220.732C181.078 219.153 183.985 217.042 183.584 215.99C183.184 214.939 185.297 208.879 185.297 208.879C185.297 208.879 185.431 203.875 186.746 202.936C187.248 202.584 187.574 201.491 187.791 200.283C188.022 198.856 188.158 197.416 188.2 195.971C188.2 195.971 218.391 193.864 223.268 196.761C225.464 198.063 225.31 200.462 224.392 202.891C223.268 205.855 220.961 208.879 220.38 209.976C219.29 211.997 219.814 213.359 219.024 215.466Z" fill="#575988"/>
<path opacity="0.1" d="M224.355 202.891C220.609 203.943 215.619 205.488 214.806 206.375C213.487 207.828 209.003 198.209 209.003 198.209C209.003 198.209 209.269 205.44 203.335 202.416C198.199 199.796 189.908 200.14 187.765 200.283C187.996 198.856 188.132 197.416 188.174 195.971C188.174 195.971 218.365 193.864 223.242 196.761C225.437 198.063 225.284 200.462 224.355 202.891Z" fill="black"/>
<path d="M209.003 123.263C209.003 123.263 211.625 120.101 212.168 121.287C212.712 122.473 215.806 124.843 215.806 124.843C215.806 124.843 216.694 127.608 218.256 128.005C219.818 128.402 231.551 144.207 231.551 144.207L227.329 152.766L223.902 173.579C223.902 173.579 224.051 176.872 223.119 178.07C222.186 179.268 218.623 178.991 220.275 180.439C221.927 181.888 224.299 183.205 225.617 189.796C226.936 196.386 228.517 200.2 228.517 200.2C228.517 200.2 216.124 203.363 214.806 204.811C213.487 206.259 209.003 196.645 209.003 196.645C209.003 196.645 209.269 203.872 203.335 200.851C197.401 197.831 187.248 198.752 187.248 198.752V190.967C187.248 190.967 189.226 187.936 188.174 185.829C187.121 183.721 188.893 179.769 188.893 179.769C188.893 179.769 188.305 175.686 187.248 173.317C186.192 170.948 186.589 159.75 186.589 159.75C186.589 159.75 185.787 152.504 186.518 148.814C187.138 145.615 188.232 142.527 189.766 139.652C191.216 136.83 192.133 134.195 191.74 133.14C191.347 132.084 195.22 129.801 195.22 129.801L197.367 133.271L197.914 135.344C197.914 135.344 209.269 127.215 209.003 123.263Z" fill="#DCE6F2"/>
<path d="M227.977 141.572C227.977 141.572 235.361 148.814 236.152 150C236.942 151.187 239.591 157.355 236.163 159.226C232.735 161.097 219.305 163.983 217.971 162.987C216.638 161.992 208.606 164.11 208.606 164.11C208.606 164.11 195.172 167.404 198.071 162.003C200.971 156.602 207.83 157.512 207.83 157.512C207.83 157.512 218.912 157.493 220.095 156.389C221.279 155.285 230.21 152.916 228.187 148.036C226.164 143.155 227.977 141.572 227.977 141.572Z" fill="#FFC1C8"/>
<path opacity="0.1" d="M206.294 173.976C206.294 173.976 189.095 188.86 190.807 188.86C192.519 188.86 206.294 173.976 206.294 173.976Z" fill="black"/>
<path opacity="0.1" d="M217.765 180.035C217.765 180.035 212.299 181.349 213.356 182.142C214.412 182.935 217.765 180.035 217.765 180.035Z" fill="black"/>
<path opacity="0.1" d="M198.491 143.941C198.491 143.941 205.313 144.551 204.11 146.684C202.908 148.818 198.491 143.941 198.491 143.941Z" fill="black"/>
<path opacity="0.1" d="M194.239 207.914C194.239 207.914 193.313 210.593 194.239 212.031C195.164 213.468 194.239 216.896 194.239 216.896V228.872C194.239 228.872 194.111 237.566 197.27 240.594L194.239 207.914Z" fill="black"/>
<path opacity="0.1" d="M185.207 245.235C185.207 245.235 187.05 247.934 187.316 248.922C187.582 249.91 185.207 245.235 185.207 245.235Z" fill="black"/>
<path opacity="0.1" d="M185.667 239.834C185.667 239.834 189.953 239.045 190.612 239.505C191.272 239.965 185.667 239.834 185.667 239.834Z" fill="black"/>
<path opacity="0.1" d="M184.416 255.969C184.416 255.969 183.161 256.1 185.667 257.466C188.174 258.832 193.051 260.561 193.115 259.97C193.179 259.378 184.416 255.969 184.416 255.969Z" fill="black"/>
<path opacity="0.1" d="M202.762 242.862C203.204 242.862 208.722 242.533 208.403 243.39C208.085 244.247 202.762 242.862 202.762 242.862Z" fill="black"/>
<path opacity="0.1" d="M210.258 235.156C210.258 235.156 211.509 232.986 211.97 233.906C212.431 234.827 210.258 235.156 210.258 235.156Z" fill="black"/>
<path opacity="0.1" d="M206.294 112.855C206.296 114.471 206.072 116.08 205.627 117.634C204.901 118.293 203.646 118.3 202.75 117.81C201.701 117.234 201.016 116.186 200.334 115.19C199.652 114.195 198.877 113.199 197.76 112.773C196.348 112.241 194.737 112.773 193.508 113.656C192.28 114.539 191.298 115.707 190.137 116.65C188.975 117.593 187.496 118.357 186.016 118.125C185.061 117.979 184.214 117.44 183.393 116.919C182.27 116.212 181.063 115.112 179.831 114.636C178.598 114.161 177.583 115.011 176.41 115.011C175.478 115.348 174.462 116.115 174.65 117.084C174.75 117.444 174.912 117.783 175.129 118.087C175.506 118.828 175.654 119.664 175.556 120.489C175.458 121.314 175.118 122.092 174.579 122.724C173.026 120.481 172.023 117.905 171.65 115.204C171.278 112.502 171.547 109.751 172.436 107.173C173.324 104.594 174.807 102.261 176.765 100.36C178.723 98.4603 181.101 97.0468 183.707 96.2343C186.312 95.4217 189.073 95.2328 191.765 95.6828C194.457 96.1328 197.006 97.209 199.205 98.8247C201.404 100.44 203.192 102.55 204.424 104.983C205.656 107.417 206.298 110.105 206.298 112.832L206.294 112.855Z" fill="black"/>
<path d="M176.407 114.505C175.474 114.842 174.459 115.609 174.642 116.583C174.746 116.94 174.91 117.278 175.125 117.582C176.219 119.532 175.294 122.331 173.252 123.237C172.932 123.403 172.567 123.461 172.211 123.402C171.929 123.314 171.672 123.16 171.462 122.952C170.364 121.972 169.606 120.668 169.3 119.229C168.978 117.732 169.176 116.145 169.012 114.606C168.847 113.068 168.319 111.552 168.135 110.003C168.005 109.237 168.087 108.45 168.371 107.728C168.618 107.251 168.936 106.814 169.315 106.433C170.368 105.261 171.465 104.064 171.994 102.578C172.829 100.212 172.222 97.1995 174.05 95.4667C174.897 94.6733 176.081 94.3776 177.13 93.8761C178.117 93.3523 179.063 92.7529 179.958 92.0834C183.348 89.7555 187.469 87.9665 191.5 88.7899C193.111 89.1794 194.653 89.8103 196.074 90.6612C198.715 92.1152 201.222 93.7984 203.567 95.6913C204.581 96.4406 205.467 97.3494 206.189 98.3822C206.728 99.2665 207.115 100.234 207.336 101.245C207.874 103.452 207.948 105.746 207.553 107.982C207.178 110.175 206.328 112.305 206.294 114.532C206.294 115.28 206.354 116.089 205.968 116.732C205.35 117.758 203.818 117.855 202.769 117.286C201.72 116.717 201.035 115.662 200.356 114.666C199.678 113.671 198.899 112.675 197.783 112.252C196.37 111.717 194.76 112.252 193.531 113.132C192.302 114.011 191.324 115.183 190.159 116.126C188.994 117.069 187.537 117.833 186.038 117.601C185.083 117.455 184.236 116.919 183.416 116.399C182.292 115.688 181.086 114.588 179.857 114.116C178.628 113.645 177.576 114.505 176.407 114.505Z" fill="#794F6A"/>
<path d="M216.387 141.572C216.387 141.572 197.007 159.484 200.96 168.44C204.912 177.396 222.313 161.591 222.313 161.591L228.517 147.25L216.387 141.572Z" fill="#F8BDC5"/>
<g opacity="0.1">
<path d="M173.245 122.174C172.926 122.341 172.562 122.398 172.207 122.339C171.924 122.252 171.666 122.096 171.458 121.886C170.36 120.906 169.601 119.604 169.293 118.166C168.974 116.65 169.173 115.078 169.008 113.54C168.843 112.002 168.311 110.49 168.131 108.936C168.131 108.862 168.131 108.783 168.113 108.704C168.072 109.133 168.078 109.565 168.131 109.992C168.311 111.541 168.843 113.038 169.008 114.595C169.173 116.152 168.974 117.705 169.293 119.217C169.601 120.657 170.359 121.961 171.458 122.941C171.667 123.15 171.925 123.304 172.207 123.39C172.562 123.45 172.926 123.392 173.245 123.226C174.856 122.511 175.766 120.628 175.553 118.907C175.474 119.601 175.222 120.265 174.819 120.836C174.415 121.408 173.874 121.868 173.245 122.174Z" fill="black"/>
<path d="M207.527 106.923C207.152 109.116 206.302 111.246 206.272 113.472C206.272 114.221 206.332 115.029 205.942 115.673C205.328 116.699 203.795 116.796 202.747 116.227C201.698 115.658 201.012 114.606 200.33 113.607C199.648 112.608 198.877 111.616 197.757 111.193C196.348 110.662 194.737 111.193 193.508 112.076C192.28 112.96 191.298 114.124 190.137 115.071C188.975 116.017 187.496 116.777 186.016 116.549C185.061 116.399 184.214 115.864 183.393 115.344C182.27 114.633 181.063 113.536 179.834 113.061C178.606 112.585 177.587 113.435 176.414 113.435C175.481 113.776 174.466 114.539 174.646 115.516C174.669 115.621 174.703 115.724 174.747 115.823C175.114 115.184 175.71 114.708 176.414 114.49C177.583 114.49 178.617 113.652 179.834 114.116C181.052 114.58 182.281 115.688 183.393 116.399C184.206 116.919 185.053 117.455 186.016 117.601C187.514 117.833 188.983 117.08 190.137 116.126C191.291 115.172 192.283 113.993 193.508 113.132C194.733 112.271 196.348 111.717 197.757 112.252C198.88 112.675 199.652 113.682 200.33 114.666C201.008 115.651 201.698 116.695 202.747 117.286C203.795 117.878 205.328 117.758 205.942 116.732C206.317 116.089 206.26 115.284 206.272 114.532C206.302 112.305 207.141 110.175 207.527 107.982C207.724 106.856 207.805 105.712 207.766 104.569C207.743 105.358 207.663 106.145 207.527 106.923Z" fill="black"/>
</g>
<path opacity="0.1" d="M193.182 50.4206C193.182 50.4206 186.065 63.3288 195.805 69.9159C205.545 76.5029 206.485 75.8442 206.485 75.8442C206.485 75.8442 206.35 77.4235 206.485 77.8203C206.62 78.217 209.108 79.1339 209.108 79.1339C209.108 79.1339 212.138 83.9993 216.488 86.1177C220.837 88.236 221.631 93.2286 221.631 93.2286C221.631 93.2286 221.631 94.9427 223.879 96.5221C226.127 98.1015 227.858 102.712 227.858 102.712V106.93C227.858 107.589 228.648 109.55 226.936 109.76C225.224 109.969 226.67 113.91 226.67 113.91C226.67 113.91 224.827 116.156 225.22 117.204C225.614 118.252 224.43 120.363 224.43 120.363C224.43 120.363 222.98 122.47 223.111 122.866C223.242 123.263 221.53 124.712 221.924 125.632C222.317 126.553 219.949 127.739 220.343 128.795C220.736 129.85 218.657 130.374 218.657 130.374L212.959 143.548C212.959 143.548 224.947 146.168 228.041 152.766L243.153 125.105C243.153 125.105 251.59 104.427 251.856 103.109C252.122 101.792 250.009 97.0498 250.009 97.0498L239.726 78.3367L224.299 56.6034C224.299 56.6034 212.037 30.5323 193.182 50.4206Z" fill="black"/>
<path opacity="0.1" d="M208.403 55.8661C208.403 55.8661 189.882 62.3595 199.637 68.9465C209.392 75.5335 210.318 74.8711 210.318 74.8711C210.318 74.8711 210.187 76.4542 210.318 76.8472C210.449 77.2402 212.94 78.1646 212.94 78.1646C212.94 78.1646 215.975 83.03 220.324 85.1483C224.673 87.2666 225.467 92.2593 225.467 92.2593C225.467 92.2593 225.467 93.9734 227.715 95.5528C229.963 97.1322 231.671 101.743 231.671 101.743V105.957C231.671 106.616 232.462 108.577 230.746 108.79C229.03 109.004 230.484 112.941 230.484 112.941C230.484 112.941 228.637 115.187 229.034 116.231C229.431 117.275 228.243 119.393 228.243 119.393C228.243 119.393 226.794 121.5 226.925 121.897C227.056 122.294 225.34 123.742 225.737 124.663C226.134 125.584 223.759 126.77 224.156 127.825C224.553 128.881 222.467 129.405 222.467 129.405L216.772 142.575C216.772 142.575 226.648 143.084 229.764 149.686L246.963 124.15C246.963 124.15 255.404 103.472 255.666 102.155C255.928 100.837 253.827 96.0805 253.827 96.0805L243.543 77.3674L220.084 63.8491C220.084 63.8491 227.258 35.974 208.403 55.8661Z" fill="black"/>
<path d="M194.239 50.4206C194.239 50.4206 187.121 63.3289 196.861 69.9159C206.601 76.5029 207.542 75.8442 207.542 75.8442C207.542 75.8442 207.411 77.4236 207.542 77.8203C207.673 78.217 210.164 79.1339 210.164 79.1339C210.164 79.1339 213.199 83.9993 217.548 86.1177C221.897 88.236 222.692 93.2286 222.692 93.2286C222.692 93.2286 222.692 94.9428 224.939 96.5221C227.187 98.1015 228.914 102.712 228.914 102.712V106.93C228.914 107.589 229.704 109.55 227.989 109.76C226.273 109.969 227.726 113.91 227.726 113.91C227.726 113.91 225.88 116.156 226.277 117.204C226.674 118.252 225.486 120.363 225.486 120.363C225.486 120.363 224.036 122.47 224.168 122.866C224.299 123.263 222.583 124.712 222.98 125.632C223.377 126.553 221.002 127.739 221.399 128.795C221.796 129.85 219.709 130.374 219.709 130.374L214.015 143.548C214.015 143.548 225.981 146.168 229.094 152.766L244.206 125.105C244.206 125.105 252.646 104.427 252.909 103.109C253.171 101.792 251.062 97.0499 251.062 97.0499L240.778 78.3368L225.355 56.6109C225.355 56.6109 213.09 30.5323 194.239 50.4206Z" fill="#6C63FF"/>
<g opacity="0.1">
<path d="M116.366 56.9028C116.227 55.267 115.874 53.6564 115.317 52.1123C114.774 50.6152 114.032 49.1406 113.856 47.55C113.856 47.5013 113.856 47.4564 113.856 47.4078C113.816 47.806 113.816 48.2072 113.856 48.6054C114.032 50.196 114.774 51.6594 115.317 53.1677C115.874 54.7106 116.227 56.3199 116.366 57.9545C116.418 58.5683 116.441 59.1895 116.448 59.8258C116.459 58.834 116.448 57.8647 116.366 56.9028Z" fill="black"/>
<path d="M129.26 73.303C128.455 75.0695 126.009 75.3502 124.135 74.83C122.536 74.3721 121.069 73.5418 119.854 72.4071C118.638 71.2724 117.71 69.8657 117.145 68.3028C116.624 66.6945 116.371 65.0116 116.396 63.3214C116.373 65.3836 116.452 67.4196 117.145 69.3545C117.71 70.918 118.638 72.3252 119.853 73.4605C121.069 74.5959 122.536 75.4269 124.135 75.8854C126.009 76.4019 128.455 76.1249 129.26 74.3547C129.601 73.6061 129.567 72.7378 129.552 71.8845C129.546 72.3715 129.446 72.8528 129.26 73.303Z" fill="black"/>
<path d="M165.659 48.699C165.498 49.8966 165.022 51.244 163.879 51.6444C163.213 51.8303 162.502 51.7636 161.883 51.4573C160.009 50.6414 158.342 48.6728 156.342 49.1481C154.708 49.5224 153.925 51.3675 153.495 52.9918C153.182 54.0181 153.047 55.09 153.094 56.1618C153.165 55.4453 153.3 54.7365 153.495 54.0434C153.925 52.4229 154.708 50.589 156.342 50.1998C158.342 49.7282 159.994 51.6968 161.883 52.509C162.501 52.818 163.213 52.886 163.879 52.6998C165.022 52.2994 165.498 50.952 165.659 49.7507C165.762 48.9855 165.799 48.213 165.771 47.4415C165.752 47.8606 165.715 48.2836 165.659 48.699Z" fill="black"/>
<path d="M155.338 63.9464C154.214 64.7586 152.689 63.894 151.457 63.2466C150.138 62.5542 148.46 62.1238 147.205 62.9209C146.774 63.1904 146.426 63.5797 146.006 63.8678C145.143 64.4014 144.118 64.6134 143.114 64.4666C140.727 64.2234 139.836 62.7151 138.019 61.5474C136.685 60.6903 133.898 60.3236 133.104 62.0826C132.913 62.6005 132.86 63.1588 132.95 63.7032C132.975 63.5086 133.027 63.3183 133.104 63.138C133.902 61.3752 136.685 61.742 138.019 62.6028C139.836 63.7705 140.727 65.2788 143.114 65.5221C144.119 65.6658 145.142 65.4525 146.006 64.9195C146.426 64.6351 146.774 64.2458 147.205 63.9764C148.471 63.1904 150.138 63.6021 151.457 64.302C152.689 64.9457 154.206 65.799 155.338 64.9981C155.997 64.5265 156.155 63.6882 156.008 62.8611C155.932 63.295 155.692 63.6832 155.338 63.9464Z" fill="black"/>
<path d="M132.853 65.7653C132.34 66.9405 130.762 67.2624 130.036 68.3215C129.493 69.1075 129.537 70.0881 129.556 71.0724C129.549 70.4729 129.716 69.8842 130.036 69.377C130.762 68.3178 132.34 67.9922 132.853 66.817C133.032 66.3057 133.081 65.7577 132.995 65.2227C132.972 65.4091 132.924 65.5916 132.853 65.7653Z" fill="black"/>
</g>
</g>
<defs>
<linearGradient id="paint0_linear_11_331" x1="193.261" y1="293.919" x2="193.261" y2="27.1452" gradientUnits="userSpaceOnUse">
<stop stop-color="#808080" stop-opacity="0.25"/>
<stop offset="0.54" stop-color="#808080" stop-opacity="0.12"/>
<stop offset="1" stop-color="#808080" stop-opacity="0.1"/>
</linearGradient>
<clipPath id="clip0_11_331">
<rect width="411" height="296" fill="white"/>
</clipPath>
</defs>
</svg>
